<svg xmlns="http://www.w3.org/2000/svg" viewBox="0 0 1200 800"><rect width="1200" height="800" fill="#1a3450"/><rect x="100" y="200" width="160" height="400" rx="8" fill="#7b5b45"/><rect x="120" y="220" width="120" height="80" rx="4" fill="#c9a227"/><rect x="120" y="320" width="120" height="80" rx="4" fill="#c9a227"/><rect x="120" y="420" width="120" height="80" rx="4" fill="#c9a227"/><rect x="100" y="200" width="160" height="400" rx="8" fill="none" stroke="#e3c25b" stroke-width="2"/><circle cx="180" cy="260" r="12" fill="#8a5a2b"/><rect x="400" y="150" width="200" height="480" rx="10" fill="#5b3a29"/><rect x="420" y="170" width="160" height="100" rx="4" fill="#e3c25b"/><rect x="420" y="290" width="160" height="100" rx="4" fill="#e3c25b"/><rect x="420" y="410" width="160" height="100" rx="4" fill="#e3c25b"/><rect x="420" y="530" width="160" height="60" rx="4" fill="#e3c25b"/><rect x="750" y="180" width="180" height="440" rx="8" fill="#4a2a1a"/><rect x="770" y="200" width="140" height="90" rx="4" fill="#c9a227"/><rect x="770" y="310" width="140" height="90" rx="4" fill="#c9a227"/><rect x="770" y="420" width="140" height="90" rx="4" fill="#c9a227"/><rect x="550" y="100" width="100" height="20" rx="10" fill="#e3c25b"/><rect x="550" y="620" width="100" height="20" rx="10" fill="#e3c25b"/><text x="600" y="680" text-anchor="middle" font-family="Tahoma" font-size="22" fill="#c9a227" font-weight="bold">صنعاء القديمة</text></svg>
